<mxfile host="65bd71144e">
    <diagram name="Services" id="BkDvvt2r1Aibw6iPf59p">
        <mxGraphModel dx="1338" dy="790" grid="1" gridSize="10" guides="1" tooltips="1" connect="1" arrows="1" fold="1" page="1" pageScale="1" pageWidth="850" pageHeight="1100" math="0" shadow="0">
            <root>
                <mxCell id="U0UwoIgXTgrsF6ALoeq0-0"/>
                <mxCell id="U0UwoIgXTgrsF6ALoeq0-1" parent="U0UwoIgXTgrsF6ALoeq0-0"/>
                <mxCell id="U0UwoIgXTgrsF6ALoeq0-19" value="" style="rounded=1;whiteSpace=wrap;html=1;fillColor=#f5f5f5;fontColor=#333333;strokeColor=#666666;" parent="U0UwoIgXTgrsF6ALoeq0-1" vertex="1">
                    <mxGeometry x="251" y="310" width="240" height="280" as="geometry"/>
                </mxCell>
                <mxCell id="U0UwoIgXTgrsF6ALoeq0-20" value="" style="sketch=0;html=1;dashed=0;whitespace=wrap;fillColor=#2875E2;strokeColor=#ffffff;points=[[0.005,0.63,0],[0.1,0.2,0],[0.9,0.2,0],[0.5,0,0],[0.995,0.63,0],[0.72,0.99,0],[0.5,1,0],[0.28,0.99,0]];shape=mxgraph.kubernetes.icon;prIcon=svc" parent="U0UwoIgXTgrsF6ALoeq0-1" vertex="1">
                    <mxGeometry x="346" y="405" width="50" height="48" as="geometry"/>
                </mxCell>
                <mxCell id="U0UwoIgXTgrsF6ALoeq0-21" value="" style="sketch=0;html=1;dashed=0;whitespace=wrap;fillColor=#2875E2;strokeColor=#ffffff;points=[[0.005,0.63,0],[0.1,0.2,0],[0.9,0.2,0],[0.5,0,0],[0.995,0.63,0],[0.72,0.99,0],[0.5,1,0],[0.28,0.99,0]];shape=mxgraph.kubernetes.icon;prIcon=pod" parent="U0UwoIgXTgrsF6ALoeq0-1" vertex="1">
                    <mxGeometry x="271" y="495" width="50" height="48" as="geometry"/>
                </mxCell>
                <mxCell id="U0UwoIgXTgrsF6ALoeq0-22" value="" style="sketch=0;html=1;dashed=0;whitespace=wrap;fillColor=#2875E2;strokeColor=#ffffff;points=[[0.005,0.63,0],[0.1,0.2,0],[0.9,0.2,0],[0.5,0,0],[0.995,0.63,0],[0.72,0.99,0],[0.5,1,0],[0.28,0.99,0]];shape=mxgraph.kubernetes.icon;prIcon=pod" parent="U0UwoIgXTgrsF6ALoeq0-1" vertex="1">
                    <mxGeometry x="346" y="495" width="50" height="48" as="geometry"/>
                </mxCell>
                <mxCell id="U0UwoIgXTgrsF6ALoeq0-23" value="" style="sketch=0;html=1;dashed=0;whitespace=wrap;fillColor=#2875E2;strokeColor=#ffffff;points=[[0.005,0.63,0],[0.1,0.2,0],[0.9,0.2,0],[0.5,0,0],[0.995,0.63,0],[0.72,0.99,0],[0.5,1,0],[0.28,0.99,0]];shape=mxgraph.kubernetes.icon;prIcon=pod" parent="U0UwoIgXTgrsF6ALoeq0-1" vertex="1">
                    <mxGeometry x="421" y="495" width="50" height="48" as="geometry"/>
                </mxCell>
                <mxCell id="U0UwoIgXTgrsF6ALoeq0-25" value="" style="endArrow=classic;html=1;exitX=0.5;exitY=1;exitDx=0;exitDy=0;exitPerimeter=0;entryX=0.5;entryY=0;entryDx=0;entryDy=0;entryPerimeter=0;" parent="U0UwoIgXTgrsF6ALoeq0-1" source="U0UwoIgXTgrsF6ALoeq0-20" target="U0UwoIgXTgrsF6ALoeq0-22" edge="1">
                    <mxGeometry width="50" height="50" relative="1" as="geometry">
                        <mxPoint x="681" y="635" as="sourcePoint"/>
                        <mxPoint x="731" y="585" as="targetPoint"/>
                    </mxGeometry>
                </mxCell>
                <mxCell id="U0UwoIgXTgrsF6ALoeq0-26" value="" style="endArrow=classic;startArrow=classic;html=1;exitX=0.5;exitY=0;exitDx=0;exitDy=0;exitPerimeter=0;entryX=0.5;entryY=0;entryDx=0;entryDy=0;entryPerimeter=0;" parent="U0UwoIgXTgrsF6ALoeq0-1" source="U0UwoIgXTgrsF6ALoeq0-21" target="U0UwoIgXTgrsF6ALoeq0-23" edge="1">
                    <mxGeometry width="50" height="50" relative="1" as="geometry">
                        <mxPoint x="301" y="665" as="sourcePoint"/>
                        <mxPoint x="351" y="615" as="targetPoint"/>
                        <Array as="points">
                            <mxPoint x="296" y="465"/>
                            <mxPoint x="371" y="465"/>
                            <mxPoint x="446" y="465"/>
                        </Array>
                    </mxGeometry>
                </mxCell>
                <mxCell id="U0UwoIgXTgrsF6ALoeq0-27" value="172.17.0.1" style="text;html=1;strokeColor=none;fillColor=none;align=center;verticalAlign=middle;whiteSpace=wrap;rounded=0;" parent="U0UwoIgXTgrsF6ALoeq0-1" vertex="1">
                    <mxGeometry x="268.5" y="545" width="55" height="20" as="geometry"/>
                </mxCell>
                <mxCell id="U0UwoIgXTgrsF6ALoeq0-28" value="172.17.0.2" style="text;html=1;strokeColor=none;fillColor=none;align=center;verticalAlign=middle;whiteSpace=wrap;rounded=0;" parent="U0UwoIgXTgrsF6ALoeq0-1" vertex="1">
                    <mxGeometry x="343.5" y="545" width="55" height="20" as="geometry"/>
                </mxCell>
                <mxCell id="U0UwoIgXTgrsF6ALoeq0-29" value="172.17.0.3" style="text;html=1;strokeColor=none;fillColor=none;align=center;verticalAlign=middle;whiteSpace=wrap;rounded=0;" parent="U0UwoIgXTgrsF6ALoeq0-1" vertex="1">
                    <mxGeometry x="418.5" y="545" width="55" height="20" as="geometry"/>
                </mxCell>
                <mxCell id="U0UwoIgXTgrsF6ALoeq0-30" value="Kubernetes Cluster" style="text;html=1;strokeColor=none;fillColor=none;align=center;verticalAlign=middle;whiteSpace=wrap;rounded=0;" parent="U0UwoIgXTgrsF6ALoeq0-1" vertex="1">
                    <mxGeometry x="313.5" y="560" width="115" height="30" as="geometry"/>
                </mxCell>
                <mxCell id="U0UwoIgXTgrsF6ALoeq0-31" value="Node Port" style="text;html=1;strokeColor=none;fillColor=none;align=center;verticalAlign=middle;whiteSpace=wrap;rounded=0;" parent="U0UwoIgXTgrsF6ALoeq0-1" vertex="1">
                    <mxGeometry x="253.5" y="395" width="60" height="30" as="geometry"/>
                </mxCell>
                <mxCell id="U0UwoIgXTgrsF6ALoeq0-32" value="Traffic" style="text;html=1;strokeColor=none;fillColor=none;align=center;verticalAlign=middle;whiteSpace=wrap;rounded=0;" parent="U0UwoIgXTgrsF6ALoeq0-1" vertex="1">
                    <mxGeometry x="337.5" y="260" width="60" height="30" as="geometry"/>
                </mxCell>
                <mxCell id="U0UwoIgXTgrsF6ALoeq0-33" value="10.96.1.0" style="text;html=1;strokeColor=none;fillColor=none;align=center;verticalAlign=middle;whiteSpace=wrap;rounded=0;" parent="U0UwoIgXTgrsF6ALoeq0-1" vertex="1">
                    <mxGeometry x="396" y="414" width="60" height="30" as="geometry"/>
                </mxCell>
                <mxCell id="U0UwoIgXTgrsF6ALoeq0-35" value="" style="sketch=0;html=1;dashed=0;whitespace=wrap;fillColor=#2875E2;strokeColor=#ffffff;points=[[0.005,0.63,0],[0.1,0.2,0],[0.9,0.2,0],[0.5,0,0],[0.995,0.63,0],[0.72,0.99,0],[0.5,1,0],[0.28,0.99,0]];shape=mxgraph.kubernetes.icon;prIcon=node" parent="U0UwoIgXTgrsF6ALoeq0-1" vertex="1">
                    <mxGeometry x="401" y="335" width="50" height="48" as="geometry"/>
                </mxCell>
                <mxCell id="U0UwoIgXTgrsF6ALoeq0-36" value="" style="sketch=0;html=1;dashed=0;whitespace=wrap;fillColor=#2875E2;strokeColor=#ffffff;points=[[0.005,0.63,0],[0.1,0.2,0],[0.9,0.2,0],[0.5,0,0],[0.995,0.63,0],[0.72,0.99,0],[0.5,1,0],[0.28,0.99,0]];shape=mxgraph.kubernetes.icon;prIcon=node" parent="U0UwoIgXTgrsF6ALoeq0-1" vertex="1">
                    <mxGeometry x="293.5" y="335" width="50" height="48" as="geometry"/>
                </mxCell>
                <mxCell id="U0UwoIgXTgrsF6ALoeq0-37" value="" style="endArrow=classic;html=1;exitX=0.5;exitY=1;exitDx=0;exitDy=0;exitPerimeter=0;entryX=0.5;entryY=0;entryDx=0;entryDy=0;entryPerimeter=0;" parent="U0UwoIgXTgrsF6ALoeq0-1" source="U0UwoIgXTgrsF6ALoeq0-35" target="U0UwoIgXTgrsF6ALoeq0-20" edge="1">
                    <mxGeometry width="50" height="50" relative="1" as="geometry">
                        <mxPoint x="710" y="415" as="sourcePoint"/>
                        <mxPoint x="760" y="365" as="targetPoint"/>
                        <Array as="points">
                            <mxPoint x="371" y="383"/>
                        </Array>
                    </mxGeometry>
                </mxCell>
                <mxCell id="U0UwoIgXTgrsF6ALoeq0-38" value="" style="endArrow=classic;html=1;exitX=0.5;exitY=1;exitDx=0;exitDy=0;exitPerimeter=0;entryX=0.5;entryY=0;entryDx=0;entryDy=0;entryPerimeter=0;" parent="U0UwoIgXTgrsF6ALoeq0-1" source="U0UwoIgXTgrsF6ALoeq0-36" target="U0UwoIgXTgrsF6ALoeq0-20" edge="1">
                    <mxGeometry width="50" height="50" relative="1" as="geometry">
                        <mxPoint x="720" y="455" as="sourcePoint"/>
                        <mxPoint x="770" y="405" as="targetPoint"/>
                        <Array as="points">
                            <mxPoint x="371" y="383"/>
                        </Array>
                    </mxGeometry>
                </mxCell>
                <mxCell id="U0UwoIgXTgrsF6ALoeq0-39" value="" style="endArrow=classic;html=1;entryX=0.5;entryY=0;entryDx=0;entryDy=0;entryPerimeter=0;" parent="U0UwoIgXTgrsF6ALoeq0-1" target="U0UwoIgXTgrsF6ALoeq0-36" edge="1">
                    <mxGeometry width="50" height="50" relative="1" as="geometry">
                        <mxPoint x="340" y="275" as="sourcePoint"/>
                        <mxPoint x="690" y="310" as="targetPoint"/>
                        <Array as="points">
                            <mxPoint x="319" y="275"/>
                        </Array>
                    </mxGeometry>
                </mxCell>
                <mxCell id="U0UwoIgXTgrsF6ALoeq0-40" value="" style="endArrow=classic;html=1;exitX=1;exitY=0.5;exitDx=0;exitDy=0;entryX=0.5;entryY=0;entryDx=0;entryDy=0;entryPerimeter=0;" parent="U0UwoIgXTgrsF6ALoeq0-1" source="U0UwoIgXTgrsF6ALoeq0-32" target="U0UwoIgXTgrsF6ALoeq0-35" edge="1">
                    <mxGeometry width="50" height="50" relative="1" as="geometry">
                        <mxPoint x="620" y="380" as="sourcePoint"/>
                        <mxPoint x="670" y="330" as="targetPoint"/>
                        <Array as="points">
                            <mxPoint x="426" y="275"/>
                        </Array>
                    </mxGeometry>
                </mxCell>
                <mxCell id="U0UwoIgXTgrsF6ALoeq0-41" value="Node" style="text;html=1;strokeColor=none;fillColor=none;align=center;verticalAlign=middle;whiteSpace=wrap;rounded=0;" parent="U0UwoIgXTgrsF6ALoeq0-1" vertex="1">
                    <mxGeometry x="250" y="349" width="55" height="20" as="geometry"/>
                </mxCell>
                <mxCell id="U0UwoIgXTgrsF6ALoeq0-42" value="Node" style="text;html=1;strokeColor=none;fillColor=none;align=center;verticalAlign=middle;whiteSpace=wrap;rounded=0;" parent="U0UwoIgXTgrsF6ALoeq0-1" vertex="1">
                    <mxGeometry x="440" y="349" width="55" height="20" as="geometry"/>
                </mxCell>
            </root>
        </mxGraphModel>
    </diagram>
</mxfile>